<svg id="Icons" enable-background="new 0 0 512 512" height="512" viewBox="0 0 512 512" width="512" xmlns="http://www.w3.org/2000/svg"><g><circle cx="256" cy="256" fill="#6c53a2" r="256"/><g><g><path d="m473.108 153.895-85.146-85.146c-9.113-9.113-23.888-9.113-33.001 0l-43.797 43.797c-7.658-2.991-15.775-5.025-24.224-5.926-3.33-.36-6.72-.54-10.14-.54h-41.6c-12.106 0-23.685 2.294-34.364 6.466l-43.797-43.797c-9.113-9.113-23.888-9.113-33.001 0l-85.146 85.146c-9.113 9.113-9.113 23.888 0 33.001 9.113 9.113 23.888 9.113 33.001 0l7.758-7.758c9.113-9.113 23.888-9.113 33.001 0l24.251 24.251c-8.77 39.755-24.422 106.46-24.422 106.46-8.01 43.76 25.59 84.07 70.07 84.07h146.9c44.48 0 78.08-40.31 70.07-84.07 0 0-15.652-66.705-24.422-106.46l24.251-24.251c9.113-9.113 23.888-9.113 33.001 0l7.758 7.758c9.113 9.113 23.888 9.113 33.001 0 9.111-9.113 9.111-23.888-.002-33.001z" fill="#f39e22"/><path d="m235.2 106.08c-3.42 0-6.81.18-10.14.54-8.447.891-16.59 2.902-24.285 5.865l-43.736-43.736c-9.113-9.113-23.888-9.113-33.001 0l-85.146 85.146c-9.113 9.113-9.113 23.888 0 33.001 9.113 9.113 23.888 9.113 33.001 0l7.758-7.758c9.113-9.113 23.888-9.113 33.001 0l24.061 24.061-24.233 106.651c-8.01 43.76 25.59 84.07 70.07 84.07h73.45v-287.84z" fill="#dd8c29"/><path d="m308.263 156.234h-10.319c-8.591 0-15.556 6.965-15.556 15.556v13.833c0 8.591 6.965 15.556 15.556 15.556h10.319c8.591 0 15.556-6.965 15.556-15.556v-13.833c0-8.591-6.965-15.556-15.556-15.556z" fill="#dd8c29"/><path d="m214.056 156.234h-10.319c-8.591 0-15.556 6.965-15.556 15.556v13.833c0 8.591 6.965 15.556 15.556 15.556h10.319c8.591 0 15.556-6.965 15.556-15.556v-13.833c0-8.591-6.965-15.556-15.556-15.556z" fill="#b26e2b"/><path d="m286.94 106.62v30.15c0 8.55-6.93 15.47-15.47 15.47-4.27 0-8.14-1.73-10.94-4.53s-4.53-6.67-4.53-10.94v-30.69h20.8c3.42 0 6.81.18 10.14.54z" fill="#f9c744"/><path d="m256 106.08v30.69c0 8.55-6.93 15.47-15.47 15.47-4.27 0-8.14-1.73-10.94-4.53s-4.53-6.67-4.53-10.94v-30.15c3.33-.36 6.72-.54 10.14-.54z" fill="#f39e22"/><path d="m365.273 334.454-15.917 1.994c-8.772 1.099-16.773-5.121-17.872-13.893l-4.533-36.192c-1.099-8.772 5.121-16.773 13.893-17.872l10.448-1.309c7.855-.984 15.25 3.922 17.396 11.542l10.002 35.507c2.655 9.427-3.701 19.006-13.417 20.223z" fill="#f9c744"/><path d="m146.727 334.454 15.917 1.994c8.772 1.099 16.773-5.121 17.872-13.893l4.533-36.192c1.099-8.772-5.121-16.773-13.893-17.872l-10.448-1.309c-7.855-.984-15.25 3.922-17.396 11.542l-10.002 35.507c-2.655 9.427 3.701 19.006 13.417 20.223z" fill="#f39e22"/></g><g><g><path d="m354.344 228.408c-1.207-13.791-17.858-23.6-31.649-22.393s-23.993 13.365-22.786 27.156 12.596 15.202 26.387 13.995c13.791-1.206 29.255-4.967 28.048-18.758z" fill="#bf5e39"/><path d="m338.201 222.005.696 7.96c.316 3.616-.862 7.012-3.017 9.579-1.145 1.365-2.562 2.493-4.189 3.298-1.433.718-3.028 1.188-4.721 1.337-7.222.632-13.592-4.703-14.223-11.926l-.696-7.96c-.631-7.212 4.714-13.583 11.936-14.214 1.694-.148 3.346.039 4.882.496 5.019 1.488 8.849 5.911 9.332 11.43z" fill="#334353"/><path d="m338.201 222.005.696 7.96c.316 3.616-.862 7.012-3.017 9.579-1.145 1.365-2.562 2.493-4.189 3.298-5.019-1.488-8.848-5.901-9.332-11.43l-.696-7.96c-.483-5.519 2.521-10.54 7.205-12.877 5.02 1.488 8.85 5.911 9.333 11.43z" fill="#2e3140"/><path d="m343.503 222.135c-.328-3.744-3.628-6.513-7.372-6.186-8.958 1.133-7.83 13.998 1.186 13.558 3.744-.327 6.514-3.628 6.186-7.372z" fill="#fff"/></g><g><path d="m157.656 228.408c1.207-13.791 17.858-23.6 31.649-22.393s23.993 13.365 22.786 27.156-12.596 15.202-26.387 13.995c-13.791-1.206-29.255-4.967-28.048-18.758z" fill="#bf5e39"/><path d="m173.799 222.005-.696 7.96c-.316 3.616.862 7.012 3.017 9.579 1.145 1.365 2.562 2.493 4.189 3.298 1.433.718 3.028 1.188 4.721 1.337 7.222.632 13.592-4.703 14.223-11.926l.696-7.96c.631-7.212-4.714-13.583-11.936-14.214-1.694-.148-3.346.039-4.882.496-5.019 1.488-8.849 5.911-9.332 11.43z" fill="#334353"/><path d="m199.951 224.293-.696 7.96c-.316 3.616-2.067 6.756-4.634 8.91-1.365 1.145-2.956 2.01-4.698 2.52-4.684-2.337-7.689-7.348-7.205-12.877l.696-7.96c.483-5.519 4.313-9.942 9.332-11.43 4.684 2.337 7.688 7.358 7.205 12.877z" fill="#2e3140"/><path d="m205.15 225.342c.328-3.744-2.442-7.044-6.186-7.372-9.018-.439-10.141 12.426-1.186 13.558 3.744.327 7.045-2.442 7.372-6.186z" fill="#fff"/></g></g><g><path d="m312.28 402.05c-9.24 14.94-25.78 25.07-44.94 25.07h-22.68c-31.88 0-56.49-28.03-52.37-59.64l19.69-121.03c1.45-11.12 10.93-19.43 22.14-19.43h43.76c11.21 0 20.69 8.31 22.14 19.43l19.69 121.03c1.64 12.61-1.29 24.65-7.43 34.57z" fill="#f39e22"/><path d="m312.28 402.05h-62.58c-20.21 0-35.81-17.77-33.2-37.81l21.8-137.22h39.58c11.21 0 20.69 8.31 22.14 19.43l19.69 121.03c1.64 12.61-1.29 24.65-7.43 34.57z" fill="#f9c744"/><g><path d="m271.151 317.7h-30.302c-13.637 0-23.844 12.511-21.105 25.87l3.506 17.102c2.055 10.022 10.874 17.217 21.105 17.217h23.291c10.231 0 19.051-7.195 21.105-17.217l3.506-17.102c2.738-13.359-7.468-25.87-21.106-25.87z" fill="#2e3140"/><path d="m271.997 323.768h-31.995c-9.1 0-16.477 7.377-16.477 16.477v1.95c0 9.1 7.377 16.477 16.477 16.477h31.995c9.1 0 16.477-7.377 16.477-16.477v-1.95c0-9.1-7.377-16.477-16.477-16.477z" fill="#334353"/><path d="m277.051 331.735h-42.102c-3.632 0-6.576 2.944-6.576 6.576 0 3.632 2.944 6.576 6.576 6.576h42.102c3.632 0 6.576-2.944 6.576-6.576-.001-3.632-2.945-6.576-6.576-6.576z" fill="#3f5d77"/><path d="m268.268 331.735h-11.028c-3.632 0-6.576 2.944-6.576 6.576 0 3.632 2.944 6.576 6.576 6.576h11.028c3.632 0 6.576-2.944 6.576-6.576 0-3.632-2.944-6.576-6.576-6.576z" fill="#fff"/></g><path d="m280.601 293.344h-12.314c-6.786 0-12.287-5.501-12.287-12.287v-27.999c0-6.786 5.501-12.287 12.287-12.287h8.083c6.077 0 11.241 4.442 12.149 10.451l4.231 27.999c1.123 7.433-4.632 14.123-12.149 14.123z" fill="#fad98f"/><g><path d="m275.07 495.66h-38.14c-15.55 0-27.12-14.38-23.79-29.58l7.61-34.67 5.9-26.9 29.35-8 29.35 8 5.91 26.91 7.6 34.66c3.33 15.2-8.24 29.58-23.79 29.58z" fill="#ed72ab"/><path d="m291.26 431.42-5.91-26.91-29.35-8-29.35 8-5.9 26.9c7.707-8.34 18.334-13.926 30.25-15.159v68.681c0 2.761 2.239 5 5 5s5-2.239 5-5v-68.68c11.916 1.234 22.544 6.828 30.26 15.168z" fill="#e063a2"/><path d="m261 441.28v32.018c0 6.064 4.915 10.979 10.979 10.979h7.026c7.012 0 12.227-6.483 10.724-13.332l-7.026-32.018c-.832-3.794-3.608-6.865-7.298-8.078-7.1-2.332-14.405 2.958-14.405 10.431z" fill="#f0a6b3"/><path d="m251 441.28v32.018c0 6.064-4.915 10.979-10.979 10.979h-7.026c-7.012 0-12.227-6.483-10.724-13.332l7.026-32.018c.832-3.794 3.607-6.865 7.298-8.078 7.1-2.332 14.405 2.958 14.405 10.431z" fill="#f0a6b3"/><path d="m278.755 478.508c-4.11.679-7.993-2.102-8.672-6.213l-3.392-20.526c-.679-4.11 2.102-7.993 6.213-8.672 4.11-.679 7.993 2.102 8.672 6.213l3.392 20.526c.679 4.11-2.102 7.993-6.213 8.672z" fill="#fff"/></g><path d="m288.474 410.399c-4.782 0-10.855-2.066-17.285-4.253-5.466-1.859-11.635-3.958-15.06-3.878-2.699.069-7.708 2.026-12.127 3.752-5.765 2.252-11.21 4.379-15.629 4.379-7.836 0-30.375-9.927-34.813-11.917-2.52-1.13-3.646-4.088-2.517-6.608 1.13-2.52 4.089-3.647 6.608-2.517 12.109 5.427 26.911 11.042 30.723 11.042 2.535 0 7.558-1.962 11.99-3.693 5.687-2.222 11.058-4.32 15.507-4.435 5.188-.142 11.671 2.072 18.539 4.408 5.126 1.744 10.938 3.72 14.065 3.72 2.911-.047 15.585-5.679 25.595-10.91 2.448-1.278 5.469-.332 6.747 2.115 1.279 2.447.333 5.468-2.115 6.747-5.408 2.826-23.566 12.048-30.228 12.048z" fill="#b26e2b"/></g><g><path d="m439.092 168.676-60.212-60.211c-6.737-6.737-6.737-17.661 0-24.398 6.737-6.737 17.661-6.737 24.398 0l60.211 60.211c6.737 6.737 6.737 17.661 0 24.398-6.736 6.737-17.659 6.737-24.397 0z" fill="#f9c744"/><path d="m396.358 143.147-29.321-29.321c-4.947-4.947-12.969-4.947-17.916 0l-15.818 15.818c-4.947 4.947-4.947 12.969 0 17.916l29.321 29.321c4.947 4.947 12.969 4.947 17.916 0l15.818-15.818c4.947-4.947 4.947-12.969 0-17.916z" fill="#dd8c29"/><path d="m72.908 168.676 60.211-60.211c6.737-6.737 6.737-17.661 0-24.398-6.737-6.737-17.661-6.737-24.398 0l-60.211 60.211c-6.737 6.737-6.737 17.661 0 24.398 6.737 6.737 17.66 6.737 24.398 0z" fill="#f39e22"/><path d="m115.642 143.147 29.321-29.321c4.947-4.947 12.969-4.947 17.916 0l15.818 15.818c4.947 4.947 4.947 12.969 0 17.916l-29.321 29.321c-4.947 4.947-12.969 4.947-17.916 0l-15.818-15.818c-4.947-4.947-4.947-12.969 0-17.916z" fill="#b26e2b"/></g><g><g><path d="m295.319 379.963c-1.928 0-3.494-1.56-3.5-3.489-.006-1.933 1.556-3.505 3.489-3.511l33.717-.104h.011c1.928 0 3.494 1.56 3.5 3.489.006 1.933-1.556 3.505-3.489 3.511l-33.717.104c-.004 0-.008 0-.011 0z" fill="#fad98f"/><path d="m218.681 379.963c1.928 0 3.494-1.56 3.5-3.489.006-1.933-1.556-3.505-3.489-3.511l-33.717-.104c-.003 0-.007 0-.011 0-1.928 0-3.494 1.56-3.5 3.489-.006 1.933 1.556 3.505 3.489 3.511l33.717.104z" fill="#f9c744"/></g><g><path d="m310.192 361.545c-1.899.335-3.712-.93-4.053-2.828-.341-1.903.924-3.722 2.827-4.063l33.187-5.957c.003-.001.007-.001.011-.002 1.899-.335 3.712.93 4.053 2.828.341 1.903-.924 3.722-2.827 4.063l-33.187 5.957c-.004.001-.008.001-.011.002z" fill="#fad98f"/><path d="m203.808 361.545c1.899.335 3.712-.93 4.053-2.828.341-1.903-.924-3.722-2.827-4.063l-33.187-5.957c-.003-.001-.007-.001-.011-.002-1.899-.335-3.712.93-4.053 2.828-.341 1.903.924 3.722 2.827 4.063l33.187 5.957c.004.001.008.001.011.002z" fill="#f9c744"/></g></g></g></g></svg>