<svg id="Layer_1" data-name="Layer 1" xmlns="http://www.w3.org/2000/svg" xmlns:xlink="http://www.w3.org/1999/xlink" viewBox="0 0 903.82 731.62"><defs><linearGradient id="linear-gradient" x1="2.56" y1="767.72" x2="2.56" y2="768.72" gradientTransform="matrix(68.76, 0, 0, -61.01, 711.75, 47185.61)" gradientUnits="userSpaceOnUse"><stop offset="0" stop-color="gray" stop-opacity="0.25"/><stop offset="0.54" stop-color="gray" stop-opacity="0.12"/><stop offset="1" stop-color="gray" stop-opacity="0.1"/></linearGradient><linearGradient id="linear-gradient-2" x1="25.9" y1="762.27" x2="25.9" y2="763.27" gradientTransform="matrix(3, 0, 0, -3, 572.43, 2707.93)" xlink:href="#linear-gradient"/></defs><title>header2</title><text x="-74.21" y="-18.19"></text><text x="-74.21" y="-18.19"></text><path id="ch-leaf" d="M211.48,611.79c0,45.24-26.89,61-60.07,61-.77,0-1.54,0-2.3,0-1.53,0-3.06-.1-4.56-.21-29.94-2.11-53.2-18.72-53.2-60.8,0-43.53,55.63-98.47,59.82-102.55h0l.24-.23S211.48,566.54,211.48,611.79Z" transform="translate(-74.21 -18.19)" style="fill:#3f3d56"/><path id="ch-leafbranch" d="M149.22,665.9l22-30.7-22,34.07-.06,3.52q-2.31,0-4.56-.21l2.36-45.26V627l0-.07.22-4.27-22.08-34.16,22.15,30.95.05.91,1.79-34.2-18.9-35.29,19.14,29.29,1.86-70.89v0l-.31,55.91L169.68,543l-18.9,27-.5,30.62,17.58-29.38-17.65,33.89-.27,17,25.5-40.9L149.84,628Z" transform="translate(-74.21 -18.19)" style="fill:#f2f2f2"/><g style="opacity:0.699999988079071"><path d="M908.19,294.7V283.8H853.72v50.39a10.61,10.61,0,0,0,10.62,10.62h33.23a10.61,10.61,0,0,0,10.62-10.62V323a14.16,14.16,0,1,0,.24-28.32Zm0,22.88V300.14a8.72,8.72,0,0,1,0,17.44Z" transform="translate(-74.21 -18.19)" style="fill:url(#linear-gradient)"/></g><path d="M906.44,296.4a12.93,12.93,0,1,0,12.93,12.93,12.93,12.93,0,0,0-12.93-12.93Zm0,20.89a8,8,0,1,1,8-8,8,8,0,0,1-8,8Z" transform="translate(-74.21 -18.19)" style="fill:#6c63ff"/><path d="M906.44,296.4a12.93,12.93,0,1,0,12.93,12.93,12.93,12.93,0,0,0-12.93-12.93Zm0,20.89a8,8,0,1,1,8-8,8,8,0,0,1-8,8Z" transform="translate(-74.21 -18.19)" style="opacity:0.10000000149011612;isolation:isolate"/><path d="M856.7,286.45h49.74v46a9.74,9.74,0,0,1-9.75,9.75H866.45a9.75,9.75,0,0,1-9.75-9.75h0Z" transform="translate(-74.21 -18.19)" style="fill:#4665f0"/><path d="M897.49,286.45v46a9.7,9.7,0,0,1-9.7,9.7h5a9.7,9.7,0,0,0,9.7-9.7h0v-46Z" transform="translate(-74.21 -18.19)" style="opacity:0.10000000149011612;isolation:isolate"/><path id="ch-cf-smoke" d="M866.52,239a2.76,2.76,0,0,0-2.2,1.44c-.66,1.54.53,3.26,1.61,4.31,2,1.95,4.09,3.86,5.45,6.57s1.78,6.5.3,9.1c-1.94,3.4-6.55,4.13-7,8.31-.29,2.68,1.5,5,3.32,6.32,4.48,3.32,10.26,4.21,13.5,9.41a10.91,10.91,0,0,1,7.34-6.53c3-.88,6.1-.81,9.14-1.41a3,3,0,0,0,2.52-1.73c.85-2.23-1.57-4.9-.74-7.14.64-1.7,2.5-1.57,3.87-2.26,2.21-1.11,3.13-4.8,2.5-7.77a14.87,14.87,0,0,0-4.28-7.2c-5-5.13-11.1-8.14-17.23-10.31-2.85-1-6.2-2.59-9.16-2.75S869.35,238.39,866.52,239Z" transform="translate(-74.21 -18.19)" style="fill:#eee"/><line x1="443.21" y1="335.72" x2="339.21" y2="659.72" style="fill:none;stroke:#e0e0e0;stroke-miterlimit:10;stroke-width:8px"/><circle cx="292.21" cy="90.72" r="72"/><path d="M582.49,221.7l-63,108a10.74,10.74,0,0,1-17.23,1.8c4.65-15.13,9.83-30.49,11.43-45.67.28.32.52.57.52.57l51.43-71Z" transform="translate(-74.21 -18.19)" style="fill:#4665f0"/><path d="M513.88,286.35c-1.29,15.21-6.17,30.67-10.51,45.89l-54.95-58.33s-54.13-75.16-41-80c12.13-4.48,93.22,78.74,105.45,91.39h0l.06.06.21.21.12.13.12.13.13.13.08.08.06.06,0,.05Z" transform="translate(-74.21 -18.19)" style="fill:#4665f0"/><line x1="269.21" y1="457.72" x2="188.21" y2="667.72" style="fill:none;stroke:#bdbdbd;stroke-miterlimit:10;stroke-width:5px"/><line x1="309.21" y1="457.72" x2="390.21" y2="667.72" style="fill:none;stroke:#bdbdbd;stroke-miterlimit:10;stroke-width:5px"/><ellipse cx="289.21" cy="459.22" rx="94" ry="25.5" style="fill:#b84733"/><ellipse cx="289.21" cy="457.22" rx="94" ry="25.5" style="fill:#f55f44"/><line x1="249.65" y1="503.86" x2="338.35" y2="531.19" style="fill:none;stroke:#bdbdbd;stroke-miterlimit:10;stroke-width:5px"/><line x1="328.76" y1="503.86" x2="240.07" y2="531.19" style="fill:none;stroke:#bdbdbd;stroke-miterlimit:10;stroke-width:5px"/><path d="M364.51,191.91h27.9a56,56,0,0,1,56,56v148h-160V268a76.11,76.11,0,0,1,76.1-76.1Z" transform="translate(-74.21 -18.19)" style="fill:#4665f0"/><path d="M288.42,395.91h160v87h-89a71,71,0,0,1-71-71h0v-16Z" transform="translate(-74.21 -18.19)" style="fill:#39447a"/><path d="M290.58,252l97.84,93h108v-14l-93-27-79.56-98.24S287.74,228,290.58,252Z" transform="translate(-74.21 -18.19)" style="opacity:0.05000000074505806;isolation:isolate"/><path d="M290.58,250l97.84,93h108v-14l-93-27-79.56-98.24S287.74,226,290.58,250Z" transform="translate(-74.21 -18.19)" style="fill:#3e64ed"/><path d="M496.42,328.91s52,4,38,14h-38Z" transform="translate(-74.21 -18.19)" style="fill:#fda57d"/><path d="M582.28,221.64l-17-6s12.94-39,22-28S582.28,221.64,582.28,221.64Z" transform="translate(-74.21 -18.19)" style="fill:#fda57d"/><path d="M288.42,395.91v4.66l160,.34v-5Z" transform="translate(-74.21 -18.19)" style="opacity:0.05000000074505806;isolation:isolate"/><path id="h2-leg" d="M412.88,488.45l107.63,9.81L526.34,718l38.54-12.54s57.62-249,2.67-270-114.34-48.62-149.81-26.1S412.88,488.45,412.88,488.45Z" transform="translate(-74.21 -18.19)" style="fill:#39447a"/><path d="M419.42,420.91s59,30,67,64" transform="translate(-74.21 -18.19)" style="opacity:0.10000000149011612;isolation:isolate"/><path d="M356.42,481.91l84,68-94,151,39,11s163-140,129-188-68-104-110-105S356.42,481.91,356.42,481.91Z" transform="translate(-74.21 -18.19)" style="fill:#39447a"/><path d="M488.42,260.91l21,36,5-10Z" transform="translate(-74.21 -18.19)" style="opacity:0.05000000074505806;isolation:isolate"/><path d="M346.42,700.91s-31,24-7,32,73,14,73,14,8-14-3-20-26-3-26-3l2-12Z" transform="translate(-74.21 -18.19)" style="fill:#333"/><path id="ch-shoe" d="M527.24,717.32s-13.62,37.77,11,31.86,69.36-26.72,69.36-26.72-.61-16.11-13.12-15.39-23.65,11.2-23.65,11.2l-5.39-13.37Z" transform="translate(-74.21 -18.19)" style="fill:#333"/><path d="M368.42,156.91h0a20,20,0,0,1,20,20v20a20,20,0,0,1-20,20h0a20,20,0,0,1-20-20v-20A20,20,0,0,1,368.42,156.91Z" transform="translate(-74.21 -18.19)" style="fill:#fda57d"/><path d="M368.42,158.91a20,20,0,0,0-20,20v6.8a64.05,64.05,0,0,0,40,0v-6.8A20,20,0,0,0,368.42,158.91Z" transform="translate(-74.21 -18.19)" style="opacity:0.05000000074505806;isolation:isolate"/><circle cx="294.21" cy="104.72" r="64" style="fill:#fda57d"/><path d="M304.42,120s16,4.12,25-14.06,16-28.1,53-17.36,44.44,12.06,46.22,1.9c1.22-6.94-11.94-23.81-20.4-33.79-4.12-4.88-10.85-7.78-18.05-7.78H348.42l-25,11.57L304.42,77l-4,22.32Z" transform="translate(-74.21 -18.19)" style="opacity:0.05000000074505806;isolation:isolate"/><path d="M304.42,118s16,4.12,25-14.06,16-28.1,53-17.36,44.44,12.06,46.22,1.9c1.22-6.94-11.94-23.81-20.4-33.79-4.12-4.88-10.85-7.78-18.05-7.78H348.42l-25,11.57L304.42,75l-4,22.32Z" transform="translate(-74.21 -18.19)"/><ellipse cx="236.71" cy="99.72" rx="6.5" ry="13" style="fill:#fda57d"/><path d="M306.27,84.46c-1.48-8.37-2.94-17.16-.24-25.23a26,26,0,0,1,16.74-16.32c5-1.55,10.48-1.52,15.49-3.17,7.05-2.32,12.58-7.71,18.71-11.9a61.39,61.39,0,0,1,17.68-8.35c5.67-1.64,12.33-2.27,17,1.4,3.88,3.09,5.23,8.38,8.44,12.16,3.74,4.4,9.54,6.31,14.61,9.08A44.61,44.61,0,0,1,437.26,77c.17,2.15,0,4.7-1.82,5.87a6.47,6.47,0,0,1-3.65.66c-25.58-.36-51.18-.73-76.66-3.08-7.92-.73-15.85-1.65-23.8-1.35a77.82,77.82,0,0,0-35,9.89" transform="translate(-74.21 -18.19)"/><path d="M107,655.16h88.52a32.78,32.78,0,0,1,32.78,32.78h0a32.78,32.78,0,0,1-32.78,32.79H107a32.79,32.79,0,0,1-32.78-32.79h0A32.78,32.78,0,0,1,107,655.16Z" transform="translate(-74.21 -18.19)" style="fill:#4665f0"/><path d="M650.09,421.07a1.5,1.5,0,1,0-1.45-1.55v.05A1.49,1.49,0,0,0,650.09,421.07Z" transform="translate(-74.21 -18.19)" style="fill:url(#linear-gradient-2)"/><line x1="795.97" y1="335.72" x2="899.97" y2="705.81" style="fill:none;stroke:#e0e0e0;stroke-miterlimit:10;stroke-width:8px"/><rect x="338.79" y="324.88" width="561.61" height="21.89" style="fill:#e0e0e0"/><path d="M557.92,337.91h79a6.5,6.5,0,0,1,6.5,6.5h0a6.5,6.5,0,0,1-6.5,6.5h-79a6.5,6.5,0,0,1-6.5-6.5h0A6.5,6.5,0,0,1,557.92,337.91Z" transform="translate(-74.21 -18.19)" style="fill:#535461"/><path d="M564.12,177.7H727.06a26.84,26.84,0,0,1,26.84,26.84V306a26.84,26.84,0,0,1-26.84,26.84H564.12A26.83,26.83,0,0,1,537.29,306V204.53A26.83,26.83,0,0,1,564.12,177.7Z" style="fill:#3e3f49"/><path d="M567.12,177.7H730.06a26.84,26.84,0,0,1,26.84,26.84V306a26.84,26.84,0,0,1-26.84,26.84H567.12A26.83,26.83,0,0,1,540.29,306V204.53A26.83,26.83,0,0,1,567.12,177.7Z" style="fill:#535461"/><circle cx="658.71" cy="254.22" r="7" style="fill:#e0e0e0"/></svg>