<svg id="Layer_1" data-name="Layer 1" xmlns="http://www.w3.org/2000/svg" viewBox="0 0 950.31 732.45"><defs><style>.cls-1{stroke:#707070;}.cls-2{fill:#a0616a;}.cls-3{fill:#d0cde1;}.cls-4{fill:#2f2e41;}.cls-5{fill:#6c63ff;}.cls-6{fill:#3f3d56;}.cls-7{fill:#cfcce0;}</style></defs><title>header1</title><path id="hair-back" class="cls-1" d="M510.55,78.6S493.38,70,495,54s6.55-19.22,6.55-19.22,6.81-16.21,31.11-14.34,18-3.27,31.92,11.05,13,24.83,6.56,34.19c-2.32,3.37-9.91,8.89-11.47,9.61-2.11,1,1.25-5.4-11.21-9.61-19.44-6.55-8.93-25.06-30-9.5S510.55,78.6,510.55,78.6Z" transform="translate(-36.73 -19.83)"/><circle id="face" class="cls-2" cx="498.55" cy="52.34" r="30.91"/><path id="neck" class="cls-2" d="M513.32,81.93s4.06,37.42-2.44,41.48,37.41,9.76,37.41,9.76-6.51-40.67,9.76-51.24Z" transform="translate(-36.73 -19.83)"/><path id="shirt" class="cls-3" d="M552.36,116.91s12.11-5.66-5.33-3.64-32.49-5.72-32.49-5.72-5.29-5.28-6.1.41,2.43,16.27-15.46,17.89-34.16-3.25-40.67,9-3.25,65.07-3.25,65.07,12.2,43.92,22,50.43,95.17-2.44,95.17-2.44l24.4-43.92V152.7s-3.26-17.9-26-13c0,0-14.64-3.25-13.83-10.57S552.36,116.91,552.36,116.91Z" transform="translate(-36.73 -19.83)"/><path id="pants" class="cls-4" d="M498.68,227.53l-7.32-4.88-8.14,4.88s-2.43,18.7-12.2,22.77L475.09,278s-9.76,35.78-2.44,63.44c0,0-131.76,296.88-103.3,313.14s104.93,26,110.62,18.71,61-296.88,61-296.88S523.08,664.3,573.51,670s95.16.81,91.1-7.32-52.06-316.4-52.06-316.4-13.82-72.39-41.48-87L575,232l-8-1.21-12.2,4.07S526.33,247.86,498.68,227.53Z" transform="translate(-36.73 -19.83)"/><path id="r-band" class="cls-4" d="M469.4,125a62.47,62.47,0,0,1,5.69,36.6c-3.26,20.34,9.76,70.77,9.76,70.77l9.76-2.44s-6.51-42.3-4.88-52.06,1.63-48-6.51-52.87S469.4,125,469.4,125Z" transform="translate(-36.73 -19.83)"/><path id="l-band" class="cls-4" d="M564,142,567.41,232l6.5,4.07s9.36-98.83,4.48-98.83h-9.93a4.48,4.48,0,0,0-4.48,4.48A1.85,1.85,0,0,0,564,142Z" transform="translate(-36.73 -19.83)"/><path id="r-shoe" class="cls-4" d="M377.48,650.48l-12.2,30.09s-56.94,28.47-39,39.86,55.31-7.32,55.31-7.32l7.32-9.76,11.39.81,17.89-6.51,7.32-38.22Z" transform="translate(-36.73 -19.83)"/><path id="l-shoe" class="cls-4" d="M634.51,650.48l12.2,30.09s56.93,28.47,39,39.86-55.31-7.32-55.31-7.32l-7.32-9.76-11.39.81-17.89-6.51-7.32-38.22Z" transform="translate(-36.73 -19.83)"/><circle id="Ellipse_10" data-name="Ellipse 10" class="cls-5" cx="452.59" cy="206.48" r="4.07"/><circle id="Ellipse_11" data-name="Ellipse 11" class="cls-5" cx="533.93" cy="210.54" r="4.07"/><ellipse id="ear-right" class="cls-2" cx="467.23" cy="45.83" rx="2.44" ry="4.47"/><ellipse id="ear-left" class="cls-2" cx="529.86" cy="45.83" rx="2.44" ry="4.47"/><circle id="circle-black" class="cls-6" cx="392.7" cy="632" r="99.67"/><circle id="circle-white" class="cls-5" cx="486.92" cy="276.61" r="99.67"/><circle id="Ellipse_16" data-name="Ellipse 16" class="cls-3" cx="565.56" cy="494.95" r="118.36"/><path id="diagnol" class="cls-6" d="M669.49,751.66l-356-356H670v1.55H317.23L670.59,750.56Z" transform="translate(-36.73 -19.83)"/><rect id="Rectangle_8" data-name="Rectangle 8" class="cls-6" x="289.13" y="730.89" width="401.8" height="1.56"/><path id="l-hand" class="cls-2" d="M583.27,230s-37-6.92-39.45,5.28,41.08,6.92,41.08,6.92Z" transform="translate(-36.73 -19.83)"/><path id="l-sh" class="cls-3" d="M582.45,146.19S671.11,217,654.84,234s-78.08,12.2-78.08,12.2l4.07-20.34,35.78-4.06-17.89-17.9-16.27,1.63Z" transform="translate(-36.73 -19.83)"/><path id="r-hand" class="cls-2" d="M451.5,264.13l11.39,8.94S471,298.29,483.23,291s-11.39-33.35-11.39-33.35L458,252.74Z" transform="translate(-36.73 -19.83)"/><path id="r-sh" class="cls-3" d="M462.89,133.17l-11.36,3.42s-78.92,58.4-82.18,74.67,15.45,25.21,15.45,25.21l70.77,33.35,7.32-19.53-33.35-17.08s2.44-4.88-7.32-5.69-11.39-11.39-11.39-11.39,19.52-30.09,30.1-23.59,13.82,11.39,13.82,11.39Z" transform="translate(-36.73 -19.83)"/><rect id="plant-base" class="cls-7" x="150.8" y="609.8" width="42.7" height="42.7"/><path id="plant-baseout" class="cls-6" d="M224.61,666.71H179.67V621.77h44.94Zm-42.7-2.25h40.45V624H181.91Z" transform="translate(-36.73 -19.83)"/><path id="plant-lbl" class="cls-5" d="M171.08,438.35c15.84.34,28.44,11.82,28.44,11.82s-13.08,10.93-28.92,10.6-28.45-11.83-28.45-11.83S155.23,438,171.08,438.35Z" transform="translate(-36.73 -19.83)"/><path id="plant-rtl" class="cls-5" d="M91.43,384.27c14.31,6.8,30.73,2.19,30.73,2.19s-6.8-15.64-21.11-22.44-30.73-2.19-30.73-2.19S77.11,377.47,91.43,384.27Z" transform="translate(-36.73 -19.83)"/><path id="plant-ltl" class="cls-6" d="M92.88,377.51c15.78-1.44,29.6,8.55,29.6,8.55s-11.78,12.33-27.56,13.78-29.59-8.55-29.59-8.55S77.1,379,92.88,377.51Z" transform="translate(-36.73 -19.83)"/><path id="plant-rml" class="cls-6" d="M150.73,380.24c-1.51,15.78,8.42,29.63,8.42,29.63s12.38-11.71,13.89-27.49-8.41-29.63-8.41-29.63S152.24,364.47,150.73,380.24Z" transform="translate(-36.73 -19.83)"/><path id="plant-rbl" class="cls-6" d="M225.05,477c-8.28,13.51-5.43,30.32-5.43,30.32s16.27-5.1,24.55-18.61,5.43-30.33,5.43-30.33S233.33,463.47,225.05,477Z" transform="translate(-36.73 -19.83)"/><path id="plant-stem" class="cls-6" d="M201,623.91l1.2-.82a37.82,37.82,0,0,1-6.67-21c0-11,5.42-21.1,10.63-30.91,1-1.82,1.93-3.63,2.85-5.44a118.75,118.75,0,0,0,9.25-23.22c8.08-30,.12-65.42-21.27-94.71-17-23.24-42.27-43.56-77.34-62.13L119,387c34.87,18.46,60,38.64,76.85,61.7,21.13,28.94,29,63.89,21,93.48a117.52,117.52,0,0,1-9.13,22.93c-.93,1.8-1.89,3.61-2.85,5.42-5.29,10-10.76,20.26-10.79,31.58A39.16,39.16,0,0,0,201,623.91Z" transform="translate(-36.73 -19.83)"/><circle id="plant-circle" class="cls-6" cx="13.83" cy="353.98" r="13.83"/><rect id="Rectangle_10" data-name="Rectangle 10" class="cls-6" x="36.48" y="645.17" width="177.14" height="2.12"/><rect class="cls-6" x="773.17" y="645.17" width="177.14" height="2.12"/><path id="_2leaf-black" data-name="2leaf-black" class="cls-6" d="M913.11,596.74c-18.67,30.47-12.24,68.37-12.24,68.37s36.67-11.5,55.33-42,12.25-68.36,12.25-68.36S931.77,566.27,913.11,596.74Z" transform="translate(-36.73 -19.83)"/><path id="_2leaf-white" data-name="2leaf-white" class="cls-6" d="M901.61,666.32l-1-.32c-.37-.12-37.23-12-55.86-42.37s-12.43-68.63-12.37-69l.18-1.06,1,.32c.37.12,37.23,12,55.86,42.37h0c18.63,30.42,12.43,68.63,12.37,69ZM834.05,556c-.85,6.41-4.23,39.68,12.27,66.62s47.68,39,53.77,41.2c.85-6.41,4.24-39.68-12.27-66.62h0c-16.49-26.94-47.67-39.05-53.77-41.2Z" transform="translate(-36.73 -19.83)"/><circle id="_2leaf-circle" data-name="2leaf-circle" class="cls-6" cx="865.3" cy="525.93" r="20.62"/><path id="hair-front" d="M512.1,46.11S516.75,55,530,56.44s10.69-3,20.41-3.78a183.59,183.59,0,0,1,21.5,0l-34-15.7Z" transform="translate(-36.73 -19.83)"/></svg>