<svg id="headbanner" xmlns="http://www.w3.org/2000/svg" viewBox="0 0 718.59 557.82" class="greetimage1">
  <defs>
    <style>
      .cls-1 {
        fill: #e6e6e6;
        
      }
      
      .cls-2 {
        fill: #6c63ff;
      }

      .cls-3 {
        fill: #ffb8b8;
      }

      .cls-4 {
        fill: #2f2e41;
      }

      .cls-5 {
        fill: #f2f2f2;
      }

      .cls-6 {
        fill: #3f3d56;
      }
      .cls-7 {
        opacity: 0.1;
        isolation: isolate;
      }
    </style>
  </defs>
  <title>head</title>
  <ellipse class="cls-1" cx="333" cy="546.82" rx="333" ry="11"/>
  <circle id="hair-head" class="cls-2" cx="328" cy="137.82" r="41"/>
  <path id="hand" class="cls-3" d="M317.16,232.62l-18.56-14.2-66.42,120.3a10.8,10.8,0,1,0,12.62,9.07Z" transform="translate(0 0)"/>
  <path id="hand-banner" class="cls-3" d="M486.5,300.9a10.81,10.81,0,0,0-10.65-7.27l-107-83.95-16.06,17,112.74,78.57a10.8,10.8,0,1,0,21.54-1.61,11,11,0,0,0-.56-2.72Z" transform="translate(0 0)"/>
  <polygon id="leg-banner" class="cls-3" points="362.3 535.03 374.91 535.03 380.91 486.4 362.3 486.4 362.3 535.03"/>
  <path id="shoe-banner" class="cls-4" d="M399.22,546.74H359.6V531.43h24.31a15.3,15.3,0,0,1,15.31,15.31Z" transform="translate(0 0)"/>
  <polygon id="leg" class="cls-3" points="262.4 523.78 273.98 528.75 298.7 486.45 281.6 479.1 262.4 523.78"/>
  <path id="shoe" class="cls-4" d="M291.7,549.11l-36.4-15.64h0l6-14.07h0l22.34,9.6a15.31,15.31,0,0,1,8,20.11Z" transform="translate(0 0)"/>
  <path id="pant" class="cls-4" d="M301.7,301.87l-60,188.93,78.72,8.43L328,388.82l10.25,110.41L402,491.74s-11.51-174.88-32.46-186.13S301.7,301.87,301.7,301.87Z" transform="translate(0 0)"/>
  <circle id="face" class="cls-3" cx="334.22" cy="162.46" r="26.24"/>
  <path id="chest" class="cls-4" d="M333.38,310.34c-18.22,0-35.76-.81-36.66-2.38a.66.66,0,0,1,.13-.82c1.25-1.85-1.69-31.85-7.89-80.24a25.05,25.05,0,0,1,16.51-26.71l.12,0,54.91-5.42.62.17a24.85,24.85,0,0,1,18.15,25.16c-1.41,30.87-3.79,83.15-3.79,86.48,0,.91-1.26,1.36-2.36,1.66C367.77,309.64,350.28,310.34,333.38,310.34Zm-35.82-2.5Z" transform="translate(0 0)"/>
  <rect id="shape-rect" class="cls-5" x="70.29" y="112.09" width="98" height="98" transform="matrix(0.62, -0.78, 0.78, 0.62, -81.02, 153.59)"/>
  <path id="shape-circle" class="cls-6" d="M126.41,247.15a22,22,0,1,1,25.06-18.44,22,22,0,0,1-25.06,18.44Zm6.33-41.53a20,20,0,1,0,16.75,22.79h0A20,20,0,0,0,132.74,205.62Z" transform="translate(0 0)"/>
  <path id="leaf1" class="cls-1" d="M79.58,495.2c-7.51,25.09,4.14,50.74,4.14,50.74s23.83-15,31.34-40.11-4.14-50.74-4.14-50.74S87.09,470.12,79.58,495.2Z" transform="translate(0 0)"/>
  <path id="leaf2" class="cls-1" d="M91,495.88c6.32,25.41-6.53,50.48-6.53,50.48S61.35,530.23,55,504.82s6.53-50.48,6.53-50.48S84.66,470.47,91,495.88Z" transform="translate(0 0)"/>
  <path id="hair-front" class="cls-2" d="M297.32,145.08a90.66,90.66,0,0,0,45.54,11c6.08-.16,12.79-1.27,16.64-6,4.35-5.31,3.26-13.62-.94-19.06s-10.75-8.5-17.29-10.58c-6.2-2-12.83-3.23-19.18-1.86A23.88,23.88,0,0,0,303.81,147a23.07,23.07,0,0,0,1,3.33" transform="translate(0 0)"/>
  <circle id="hair-up" class="cls-2" cx="299" cy="108.82" r="23"/>
  <path id="banner" class="cls-6" d="M714.61,111.37,624.33,58.75l11.58-19.87a5,5,0,0,0-8.64-5L615.69,53.71,525.4,1.09A8,8,0,0,0,514.46,4L444,124.93a8,8,0,0,0,2.88,10.94l90.29,52.62L458.08,324.13a5,5,0,1,0,8.63,5h0l79.06-135.65,90.28,52.63A8,8,0,0,0,647,243.26h0l70.5-120.95a8,8,0,0,0-2.89-10.94Z" transform="translate(0 0)"/>
  <ellipse id="smileball-shadow" class="cls-7" cx="556.56" cy="165.09" rx="10" ry="38" transform="translate(133.67 562.81) rotate(-59.76)"/>
  <circle id="smileball" class="cls-2" cx="580.73" cy="123.62" r="48"/>
  <path id="smile" class="cls-5" d="M601.62,147.36c-2.79,4.78-22.4,7.78-36.72-.56s-17.9-24.88-15.12-29.65,10.88,4,25.2,12.37S604.4,142.59,601.62,147.36Z" transform="translate(0 0)"/>
  <circle id="eye2" class="cls-5" cx="570.29" cy="97.85" r="10"/>
  <circle id="eye1" class="cls-5" cx="606.57" cy="119" r="10"/>
</svg>
