<svg id="Icons" enable-background="new 0 0 512 512" height="512" viewBox="0 0 512 512" width="512" xmlns="http://www.w3.org/2000/svg"><g><circle cx="256" cy="256" fill="#53b976" r="256"/><g><g><g><path d="m268.339 450.954h-24.677c-87.187 0-156.132-73.831-150.181-160.805l8.612-125.859c3.679-53.637 48.254-95.266 102.022-95.266h103.772c53.767 0 98.342 41.63 102.022 95.266l8.612 125.859c5.949 86.974-62.996 160.805-150.182 160.805z" fill="#deb36f"/><path d="m268.34 450.95h-12.34v-381.93h51.89c25.15 0 48.29 9.11 66.17 24.3 20.35 17.28 33.89 42.42 35.85 70.97l8.61 125.86c5.95 86.97-62.99 160.8-150.18 160.8z" fill="#fbcb74"/></g><g><path d="m374.06 93.32-61.72 25.49-56.34 18.3v-68.09h51.89c25.15 0 48.29 9.11 66.17 24.3z" fill="#f39e22"/><path d="m137.94 93.32 61.72 25.49 56.34 18.3v-68.09h-51.89c-25.15 0-48.29 9.11-66.17 24.3z" fill="#ea792e"/></g><g><path d="m381.972 288.222-30.941 42.753c-16.15 22.322-42.028 35.539-69.572 35.539h-25.459v-237.141c18.053 0 38.869-5.028 56.344-10.566 21.937-6.966 45.516 4.281 54.113 25.629l25.391 63.071c10.804 26.818 7.066 57.294-9.876 80.715z" fill="#f9c744"/><path d="m256 129.37c-18.051 0-38.867-5.023-56.344-10.566-21.935-6.957-45.515 4.289-54.11 25.635l-25.396 63.069c-10.798 26.815-7.066 57.296 9.881 80.714l30.943 42.758c16.15 22.316 42.025 35.531 69.572 35.531h25.454z" fill="#f39e22"/></g><g><path d="m316.888 425.537h-58.874c-1.112 0-2.014-.902-2.014-2.014v-44.994c0-1.112.902-2.014 2.014-2.014h58.874c13.537 0 24.511 10.974 24.511 24.511.001 13.537-10.973 24.511-24.511 24.511z" fill="#fbd9a3"/><path d="m195.112 376.514h58.874c1.112 0 2.014.902 2.014 2.014v44.994c0 1.112-.902 2.014-2.014 2.014h-58.874c-13.537 0-24.511-10.974-24.511-24.511-.001-13.537 10.973-24.511 24.511-24.511z" fill="#fbcb74"/></g></g><g><g><path d="m367.23 282.77-27.29 37.7-.03.05c-14.26 19.71-37.11 31.38-61.43 31.38h-22.48v-209.39c15.94 0 34.32-4.44 49.75-9.33 19.37-6.15 40.19 3.78 47.78 22.63l22.42 55.69c9.54 23.68 6.24 50.59-8.72 71.27z" fill="#f4e6f4"/><path d="m256 142.51v209.39h-22.48c-24.32 0-47.17-11.67-61.43-31.38l-27.32-37.75c-14.96-20.68-18.26-47.59-8.72-71.27l22.42-55.69c7.59-18.85 28.41-28.78 47.78-22.63 15.43 4.89 33.81 9.33 49.75 9.33z" fill="#decee5"/></g><g><path d="m256 285.3v66.6h-22.48c-24.32 0-47.17-11.67-61.43-31.38l18.456-18.451c10.741-10.738 25.306-16.77 40.494-16.77h24.96z" fill="#f4e6f4"/><path d="m339.94 320.47-.03.05c-14.26 19.71-37.11 31.38-61.43 31.38h-22.48v-66.6h25.046c15.19 0 29.758 6.034 40.499 16.775z" fill="#fff"/></g><g><path d="m318.874 191.32c-14.442 0-25.12 13.451-21.843 27.517l4.812 20.653c4.318 18.535-9.752 36.26-28.784 36.26h-17.059v-133.24c15.94 0 34.32-4.44 49.75-9.33 19.37-6.15 40.19 3.78 47.78 22.63l-14.048 23.755c-4.309 7.286-12.144 11.755-20.608 11.755z" fill="#fff"/><path d="m193.126 191.32c14.442 0 25.12 13.451 21.843 27.517l-4.812 20.653c-4.318 18.535 9.752 36.26 28.784 36.26h17.059v-133.24c-15.94 0-34.32-4.44-49.75-9.33-19.37-6.15-40.19 3.78-47.78 22.63l14.048 23.755c4.309 7.286 12.144 11.755 20.608 11.755z" fill="#f4e6f4"/></g></g><g><g><path d="m334.423 196.258c4.942 8.559 2.078 19.474-6.395 24.51-.065.054-.138.095-.21.137l-10.871 6.276c-4.31 2.488-9.23 3.002-13.692 1.806-4.474-1.189-8.472-4.081-10.967-8.403-4.636-8.03-2.403-18.147 4.878-23.523.548-.413 1.129-.796 1.731-1.144l10.871-6.276c4.322-2.495 9.237-2.99 13.699-1.794 4.463 1.197 8.461 4.089 10.956 8.411z" fill="#3e4e60"/><path d="m334.423 196.258c4.942 8.559 2.078 19.474-6.395 24.51-10.916-.391-21.77-6.708-28.019-17.531-1.161-2.01-2.113-4.077-2.843-6.175.548-.413 1.129-.796 1.731-1.144l10.871-6.276c4.322-2.495 9.237-2.99 13.699-1.794 4.463 1.196 8.461 4.088 10.956 8.41z" fill="#2e3140"/><path d="m317.184 194.767-6.541 3.776c-2.816 1.626-3.781 5.227-2.155 8.044 1.626 2.816 5.227 3.781 8.044 2.155l6.541-3.776c2.816-1.626 3.781-5.227 2.155-8.044-1.627-2.816-5.228-3.781-8.044-2.155z" fill="#fff"/></g><g><path d="m177.578 196.258c-4.942 8.559-2.078 19.474 6.395 24.51.065.054.137.095.21.137l10.871 6.276c4.31 2.488 9.23 3.002 13.692 1.806 4.474-1.189 8.472-4.081 10.967-8.403 4.636-8.03 2.403-18.147-4.878-23.523-.548-.413-1.129-.796-1.731-1.144l-10.871-6.276c-4.322-2.495-9.237-2.99-13.699-1.794-4.463 1.197-8.46 4.089-10.956 8.411z" fill="#3e4e60"/><path d="m177.578 196.258c-4.942 8.559-2.078 19.474 6.395 24.51 10.916-.391 21.77-6.708 28.019-17.531 1.161-2.01 2.113-4.077 2.843-6.175-.548-.413-1.129-.796-1.731-1.144l-10.871-6.276c-4.322-2.495-9.237-2.99-13.699-1.794-4.463 1.196-8.46 4.088-10.956 8.41z" fill="#2e3140"/><path d="m194.818 194.767 6.541 3.776c2.816 1.626 3.781 5.227 2.155 8.044-1.626 2.816-5.227 3.781-8.044 2.155l-6.541-3.776c-2.816-1.626-3.781-5.227-2.155-8.044 1.626-2.816 5.227-3.781 8.044-2.155z" fill="#fff"/></g></g><g><path d="m256 259.989v73.791c5.428 0 10.159-3.697 11.47-8.964l9.652-38.763c3.298-13.244-6.721-26.064-20.37-26.064z" fill="#f0a6b3"/><path d="m256 259.989v73.791c-5.428 0-10.159-3.697-11.47-8.964l-9.652-38.763c-3.298-13.244 6.721-26.064 20.37-26.064z" fill="#f4829b"/></g></g></g></svg>