<svg id="Icons" enable-background="new 0 0 512 512" height="512" viewBox="0 0 512 512" width="512" xmlns="http://www.w3.org/2000/svg"><g><circle cx="256" cy="256" fill="#ee6781" r="256"/><g><g><path d="m483.575 314.745-23.852 23.853c-13.312 13.321-31.437 18.908-48.778 16.761-12.538-1.549-24.671-7.135-34.296-16.761l-73.282-73.282c-22.937-22.937-22.937-60.128 0-83.075l23.852-23.852c.765-.765 1.548-1.513 2.349-2.226 23.061-20.685 58.553-19.946 80.725 2.226l73.282 73.282c22.946 22.937 22.946 60.137 0 83.074z" fill="#2e3140"/><path d="m478.306 257.07c-4.177 4.177-10.95 4.177-15.127 0l-86.729-86.729c-4.177-4.177-4.177-10.95 0-15.127 4.177-4.177 10.95-4.177 15.127 0l86.729 86.729c4.177 4.177 4.177 10.95 0 15.127z" fill="#3e4e60"/></g><g><g><g><path d="m313.759 307.074h-34.913l7.317-80.258h.083c-.824-16.028 4.88-32.33 17.12-44.575l23.852-23.852.026-.026c1.422-1.429 3.455-2.084 5.439-1.73 11.422 2.039 22.353 7.464 31.18 16.291l34.789 34.789 38.493 38.493c22.94 22.94 22.94 60.134 0 83.074l-23.853 23.853-.026.026c-1.435 1.428-3.477 2.081-5.47 1.724-11.411-2.044-22.33-7.466-31.149-16.285l-9.344-9.344c-14.2-14.202-33.461-22.18-53.544-22.18z" fill="#f4e6f4"/><path d="m399.269 319.988c-13.513-3.342-21.759-17.006-18.417-30.519l5.316-21.496c3.342-13.513 17.006-21.759 30.519-18.417 13.513 3.342 21.759 17.006 18.417 30.519l-5.316 21.496c-3.342 13.513-17.006 21.759-30.519 18.417z" fill="#fff"/></g><g><path d="m398.644 207.752c-6.642 29.714-25.83 54.686-51.717 69.067-12.219 6.788-27.474 4.585-37.358-5.3l-6.203-6.203c-22.937-22.937-22.937-60.128 0-83.075l16.937-16.937 6.916-6.916c1.439-1.445 3.497-2.109 5.504-1.749 11.408 2.045 22.324 7.467 31.141 16.284l34.761 34.761c.017.018.025.043.019.068z" fill="#f9c744"/><path d="m339.053 213.097c0 22.427-11.139 42.892-29.483 58.421l-6.203-6.203c-22.937-22.937-22.937-60.128 0-83.075l16.937-16.937c11.859 13.762 18.749 30.171 18.749 47.794z" fill="#f39e22"/></g></g><g><circle cx="338.545" cy="221.349" fill="#57409b" r="31.711"/><path d="m353.737 223.11c0 3.774-.986 7.32-2.71 10.4-3.642 6.528-10.628 10.945-18.644 10.945-11.79 0-21.345-9.555-21.345-21.345 0-8.728 5.235-16.233 12.731-19.541 2.631-1.161 5.552-1.812 8.614-1.812 11.79-.001 21.354 9.563 21.354 21.353z" fill="#22a8b9"/><path d="m353.737 223.11c0 3.774-.986 7.32-2.71 10.4-2.64 1.179-5.552 1.821-8.622 1.821-11.79 0-21.345-9.555-21.345-21.345 0-3.783.985-7.338 2.71-10.417 2.631-1.161 5.552-1.812 8.614-1.812 11.789-.001 21.353 9.563 21.353 21.353z" fill="#4fcae8"/><path d="m346.426 223.11c0 2.481-.651 4.813-1.786 6.836-2.393 4.294-6.986 7.197-12.256 7.197-1.584 0-3.106-.264-4.522-.748-5.534-1.874-9.511-7.118-9.511-13.286 0-5.737 3.44-10.673 8.367-12.855.378-.167.765-.317 1.161-.44 1.417-.484 2.93-.748 4.505-.748 7.751.002 14.042 6.292 14.042 14.044z" fill="#3e4e60"/><path d="m337.398 223.11c0 2.481-.651 4.813-1.786 6.836-1.68 3.009-4.434 5.341-7.751 6.449-5.534-1.874-9.511-7.118-9.511-13.286 0-5.737 3.44-10.673 8.367-12.855.378-.167.765-.317 1.161-.44 5.535 1.884 9.52 7.128 9.52 13.296z" fill="#2e3140"/><circle cx="324.458" cy="217.763" fill="#fff" r="9.564"/></g></g><g><path d="m295.084 251.319v20.195l-3.515 7.698-12.723 27.862c-81.655 0-139.887-6.485-178.992-13.515-46.105-8.273-65.632-17.297-65.632-17.297s125.94-24.943 260.862-24.943z" fill="#dd5e26"/><path d="m291.569 279.212-12.723 27.862c-81.655 0-139.887-6.485-178.992-13.515 48.54-6.68 118.663-14.121 191.715-14.347z" fill="#bf5e39"/><path d="m295.084 176.736v83.011c-45.588.046-94.968 2.857-141.089 6.136-36.937 2.532-105.692 8.762-130.966 11.531-4.091.421-7.05-3.762-5.334-7.492 36.656-85.621 153.739-91.098 277.389-93.186z" fill="#ea792e"/><path d="m295.084 176.736v57.677c-82.705.179-188.868 9.29-267.584 17.194 44.655-67.337 149.431-72.879 267.584-74.871z" fill="#f39e22"/><path d="m295.087 259.748c-6.488 0-11.747-5.26-11.747-11.747v-59.512c0-6.488 5.26-11.747 11.747-11.747 6.488 0 11.747 5.26 11.747 11.747v59.511c.001 6.488-5.259 11.748-11.747 11.748z" fill="#2e3140"/><path d="m272.569 305.168c-5.433-3.546-6.963-10.825-3.417-16.258l16.096-24.662c3.546-5.433 10.825-6.963 16.258-3.417 5.433 3.546 6.963 10.825 3.417 16.258l-16.096 24.662c-3.546 5.434-10.825 6.963-16.258 3.417z" fill="#2e3140"/><g fill="#dd5e26"><path d="m242.104 208.544v52.322c-7.76.298-15.612.648-23.505 1.038v-53.361c0-6.485 5.262-11.747 11.747-11.747 6.491.002 11.757 5.256 11.758 11.748z"/><path d="m198.045 226.18v36.835c-7.852.452-15.704.935-23.494 1.449v-38.284c.635-15.587 22.862-15.581 23.494 0z"/><path d="m153.995 246.735v19.147c-7.975.575-15.827 1.172-23.494 1.768v-20.915c.636-15.588 22.863-15.58 23.494 0z"/></g><path d="m104.335 234.187c0 12.867-2.631 25.108-7.389 36.228-33.597 2.888-60.606 5.611-73.916 6.999-4.091.421-7.05-3.762-5.334-7.492 12.127-26.506 30.37-52.138 80.154-69.784 4.183 10.534 6.485 22.024 6.485 34.049z" fill="#2e3140"/><path d="m49.312 254.63c-3.872-5.264-2.743-12.671 2.521-16.543l24.006-17.657c5.264-3.872 12.671-2.743 16.543 2.521 3.872 5.264 2.743 12.671-2.521 16.543l-24.007 17.656c-5.264 3.872-12.67 2.744-16.542-2.52z" fill="#3e4e60"/><path d="m270.233 201.093c0 7.944-6.064 14.738-14.132 15.498l-13.998 1.316c-20.021 1.89-47.39 4.475-67.4 6.352 0 0-26.362 2.487-26.362 2.487-9.093.914-17.11-6.422-17.061-15.55 0-7.955 6.064-14.748 14.131-15.509l107.759-10.154c9.098-.904 17.121 6.422 17.063 15.56z" fill="#f9c744"/><path d="m242.104 208.544v9.363l-23.505 2.22v-11.583c.634-15.591 22.875-15.577 23.505 0z" fill="#ea792e"/><path d="m197.335 222.131-22.631 2.128c.925-5.57 5.766-9.825 11.593-9.825 3.248 0 6.187 1.316 8.304 3.443 1.193 1.192 2.128 2.641 2.734 4.254z" fill="#ea792e"/></g></g></g></svg>